<svg width="32" height="32" viewBox="0 0 32 32" fill="none" xmlns="http://www.w3.org/2000/svg">
<rect width="32" height="32" rx="16" fill="white"/>
<path d="M14.5282 10.9871L15.015 11.8593C15.4542 12.6464 15.2779 13.679 14.586 14.3708C14.586 14.3709 14.586 14.3708 14.586 14.3709C14.5859 14.371 13.7469 15.2102 15.2684 16.7316C16.7892 18.2524 17.6283 17.4148 17.6291 17.414C17.6292 17.4139 17.6292 17.414 17.6292 17.4139C18.321 16.7221 19.3536 16.5458 20.1407 16.985L21.0129 17.4718C22.2014 18.1351 22.3418 19.8019 21.2971 20.8466C20.6693 21.4744 19.9003 21.9629 19.0502 21.9951C17.6191 22.0493 15.1887 21.6872 12.7508 19.2492C10.3128 16.8113 9.95066 14.3809 10.0049 12.9498C10.0371 12.0997 10.5256 11.3307 11.1534 10.7029C12.1981 9.65821 13.8649 9.79858 14.5282 10.9871Z" fill="#242424"/>
<path d="M16.9446 8.41006C16.9943 8.10339 17.2842 7.89536 17.5908 7.94501C17.6098 7.94864 17.6709 7.96006 17.7029 7.96718C17.7669 7.98143 17.8562 8.00338 17.9675 8.0358C18.1901 8.10063 18.501 8.20743 18.8742 8.37854C19.6214 8.7211 20.6158 9.32035 21.6476 10.3522C22.6795 11.3841 23.2787 12.3784 23.6213 13.1256C23.7924 13.4988 23.8992 13.8098 23.964 14.0324C23.9965 14.1437 24.0184 14.2329 24.0327 14.2969C24.0398 14.3289 24.045 14.3546 24.0486 14.3736L24.0529 14.397C24.1026 14.7037 23.8965 15.0056 23.5898 15.0552C23.284 15.1047 22.9959 14.8977 22.945 14.5925C22.9435 14.5843 22.9392 14.5623 22.9346 14.5415C22.9253 14.5 22.9093 14.4341 22.8839 14.347C22.8332 14.1727 22.745 13.9137 22.5987 13.5945C22.3063 12.9567 21.7805 12.0761 20.8521 11.1477C19.9237 10.2193 19.0431 9.69356 18.4054 9.40118C18.0861 9.25482 17.8271 9.16667 17.6529 9.11591C17.5657 9.09054 17.4563 9.06541 17.4147 9.05615C17.1095 9.00529 16.8951 8.71585 16.9446 8.41006Z" fill="#242424"/>
<path fill-rule="evenodd" clip-rule="evenodd" d="M17.1143 10.9972C17.1996 10.6984 17.511 10.5255 17.8097 10.6108L17.6552 11.1517C17.8097 10.6108 17.8097 10.6108 17.8097 10.6108L17.8108 10.6111L17.8119 10.6115L17.8144 10.6122L17.8202 10.6139L17.8351 10.6186C17.8464 10.6222 17.8605 10.6269 17.8773 10.6329C17.911 10.6448 17.9555 10.6618 18.0102 10.6852C18.1194 10.732 18.2687 10.8044 18.4521 10.9129C18.8192 11.1302 19.3203 11.491 19.9091 12.0798C20.4978 12.6685 20.8587 13.1696 21.0759 13.5367C21.1845 13.7201 21.2568 13.8694 21.3036 13.9787C21.327 14.0333 21.344 14.0778 21.356 14.1115C21.3619 14.1283 21.3667 14.1424 21.3703 14.1538L21.3749 14.1686L21.3766 14.1744L21.3774 14.1769L21.3777 14.1781C21.3777 14.1781 21.378 14.1791 20.8371 14.3337L21.378 14.1791C21.4633 14.4778 21.2904 14.7892 20.9917 14.8745C20.6955 14.9591 20.3869 14.7898 20.2985 14.4958L20.2957 14.4877C20.2917 14.4764 20.2835 14.4542 20.2696 14.4218C20.2418 14.3571 20.1915 14.2512 20.1078 14.1097C19.9406 13.8272 19.6385 13.4002 19.1136 12.8753C18.5886 12.3503 18.1617 12.0483 17.8791 11.881C17.7377 11.7973 17.6317 11.747 17.567 11.7193C17.5346 11.7054 17.5124 11.6971 17.5011 11.6931L17.493 11.6903C17.199 11.6019 17.0297 11.2933 17.1143 10.9972Z" fill="#242424"/>
</svg>
