<svg width="32" height="32" viewBox="0 0 32 32" fill="none" xmlns="http://www.w3.org/2000/svg">
<rect width="32" height="32" rx="16" fill="#33AADE"/>
<path fill-rule="evenodd" clip-rule="evenodd" d="M9.14337 15.3811C13.0624 13.6034 15.6713 12.4221 16.9814 11.849C20.71 10.2234 21.4938 9.94266 21.9977 9.93097C22.1097 9.93097 22.356 9.95436 22.524 10.0947C22.6583 10.2117 22.6919 10.3637 22.7143 10.4807C22.7367 10.5976 22.7591 10.8432 22.7367 11.0303C22.5352 13.2525 21.6618 18.6441 21.2139 21.1236C21.0236 22.1762 20.6541 22.5271 20.2957 22.5621C19.5119 22.6323 18.9185 22.0242 18.1683 21.5095C16.9814 20.7026 16.3208 20.1996 15.1674 19.4044C13.835 18.4921 14.6972 17.9892 15.4586 17.1705C15.6601 16.96 19.0976 13.6852 19.1648 13.3928C19.176 13.3578 19.176 13.2174 19.0976 13.1472C19.0193 13.0771 18.9073 13.1005 18.8177 13.1239C18.6946 13.1472 16.8134 14.4571 13.152 17.0419C12.6145 17.4278 12.133 17.6149 11.6963 17.6032C11.2148 17.5915 10.2967 17.3225 9.60245 17.0886C8.76266 16.8079 8.09083 16.6559 8.14682 16.1647C8.18041 15.9074 8.51632 15.6501 9.14337 15.3811Z" fill="white"/>
</svg>
