<svg width="32" height="32" viewBox="0 0 32 32" fill="none" xmlns="http://www.w3.org/2000/svg">
<rect width="32" height="32" rx="16" fill="#26D044"/>
<path fill-rule="evenodd" clip-rule="evenodd" d="M21.9838 10.0091C20.3961 8.4272 18.2848 7.55565 16.0353 7.55469C11.4004 7.55469 7.62799 11.3088 7.62613 15.923C7.62557 17.398 8.01271 18.8377 8.74863 20.1069L7.55566 24.4436L12.0135 23.2798C13.2417 23.9465 14.6246 24.298 16.0319 24.2985H16.0354C20.6699 24.2985 24.4426 20.5439 24.4446 15.9296C24.4454 13.6935 23.5714 11.5909 21.9838 10.0091ZM16.0354 22.8851H16.0326C14.7785 22.8846 13.5483 22.5493 12.4753 21.9155L12.22 21.7648L9.57469 22.4554L10.2808 19.8886L10.1146 19.6253C9.41498 18.5179 9.0454 17.2378 9.04597 15.9234C9.0475 12.0883 12.1829 8.96813 16.0383 8.96813C17.905 8.96878 19.66 9.69322 20.9796 11.0081C22.2991 12.3229 23.0254 14.0705 23.0246 15.9292C23.0231 19.7646 19.8877 22.8851 16.0354 22.8851ZM19.8692 17.6754C19.6591 17.5708 18.6261 17.0649 18.4335 16.9951C18.2409 16.9254 18.1008 16.8905 17.9608 17.0998C17.8207 17.3092 17.418 17.7802 17.2954 17.9198C17.1728 18.0592 17.0502 18.0768 16.8402 17.972C16.63 17.8674 15.9531 17.6466 15.1505 16.9341C14.5259 16.3797 14.1042 15.6949 13.9816 15.4855C13.859 15.2761 13.9685 15.163 14.0738 15.0587C14.1683 14.965 14.2839 14.8144 14.389 14.6924C14.4941 14.5703 14.529 14.483 14.5991 14.3435C14.6692 14.2039 14.6341 14.0818 14.5815 13.9772C14.529 13.8724 14.1088 12.8432 13.9337 12.4245C13.7632 12.0168 13.5899 12.0719 13.461 12.0655C13.3386 12.0595 13.1983 12.0581 13.0582 12.0581C12.9182 12.0581 12.6906 12.1104 12.4979 12.3198C12.3054 12.5291 11.7626 13.035 11.7626 14.0643C11.7626 15.0936 12.5154 16.0879 12.6205 16.2275C12.7255 16.367 14.1022 18.4791 16.2099 19.385C16.7111 19.6005 17.1025 19.7291 17.4077 19.8255C17.9111 19.9847 18.3691 19.9622 18.7311 19.9084C19.1348 19.8483 19.9742 19.4025 20.1493 18.914C20.3244 18.4255 20.3244 18.0068 20.2719 17.9196C20.2194 17.8325 20.0793 17.7802 19.8692 17.6754Z" fill="white"/>
</svg>
