<svg width="104" height="104" viewBox="0 0 104 104" fill="none" xmlns="http://www.w3.org/2000/svg">
<rect x="29" y="35" width="49" height="39" fill="white"/>
<path d="M82.4005 15.2036H21.5995C9.6704 15.2036 0 24.874 0 36.8031V67.1972C0 79.1262 9.6704 88.7966 21.5995 88.7966H82.4005C94.3296 88.7966 104 79.1262 104 67.1972V36.8031C104 24.874 94.3296 15.2036 82.4005 15.2036ZM67.793 53.4789L39.3543 67.0424C38.5965 67.4038 37.7212 66.8513 37.7212 66.0119V38.0371C37.7212 37.1857 38.6196 36.6339 39.3789 37.0187L67.8176 51.43C68.6631 51.8584 68.6484 53.071 67.793 53.4789Z" fill="#F61C0D"/>
</svg>
