<?xml version="1.0"?>
<svg xmlns="http://www.w3.org/2000/svg" xmlns:xlink="http://www.w3.org/1999/xlink" version="1.1" xml:space="preserve">
  <defs>

    <symbol id="loader" width="100%" height="100%" viewBox="22 22 44 44">
      <circle cx="44" cy="44" r="20.2" fill="none" stroke="currentColor" stroke-width="4"></circle>
    </symbol>

    <symbol id="success" width="100%" height="100%" viewBox="0 0 160 160">
      <path d="M60 80L73.3333 93.3333L100 66.6667M140 80C140 113.137 113.137 140 80 140C46.8629 140 20 113.137 20 80C20 46.8629 46.8629 20 80 20C113.137 20 140 46.8629 140 80Z" fill="var(--color-none)" stroke="currentColor" stroke-width="8" stroke-linecap="round" stroke-linejoin="round"/>
    </symbol>

    <symbol id="arrow-left" width="100%" height="100%" viewBox="0 0 30 30">
      <path d="M12.2474 15.0001L19.7906 7.45686C20.3927 6.8548 20.3927 5.87868 19.7906 5.27662C19.1886 4.67456 18.2125 4.67456 17.6104 5.27662L8.97706 13.91C8.375 14.512 8.375 15.4881 8.97706 16.0902L17.6104 24.7235C18.2125 25.3256 19.1886 25.3256 19.7906 24.7235C20.3927 24.1215 20.3927 23.1453 19.7906 22.5433L12.2474 15.0001Z" fill="currentColor"/>
    </symbol>

    <symbol id="arrow-right" width="100%" height="100%" viewBox="0 0 30 30">
      <path d="M17.7526 15.0001L10.2094 7.45686C9.6073 6.8548 9.6073 5.87868 10.2094 5.27662C10.8114 4.67456 11.7875 4.67456 12.3896 5.27662L21.0229 13.91C21.625 14.512 21.625 15.4881 21.0229 16.0902L12.3896 24.7235C11.7875 25.3256 10.8114 25.3256 10.2094 24.7235C9.6073 24.1215 9.6073 23.1453 10.2094 22.5433L17.7526 15.0001Z" fill="currentColor"/>
    </symbol>

    <symbol id="arrows" width="100%" height="100%" viewBox="0 0 44 55">
      <rect width="8" height="54" transform="matrix(1 0 0 -1 18 54.6842)" fill="currentColor"/>
      <rect width="8" height="54" transform="matrix(1 0 0 -1 18 54.6842)" fill="currentColor"/>
      <path d="M43.7074 27.4794L35.2588 21.5653C34.7285 21.1942 34 21.5735 34 22.2207V33.1477C34 33.7949 34.7285 34.1742 35.2588 33.8031L43.7074 27.889C43.8496 27.7895 43.8496 27.5789 43.7074 27.4794Z" fill="currentColor"/>
      <path d="M0.292583 27.4794L8.74123 21.5653C9.27145 21.1942 10 21.5735 10 22.2207V33.1477C10 33.7949 9.27145 34.1742 8.74123 33.8031L0.292583 27.889C0.150404 27.7895 0.150403 27.5789 0.292583 27.4794Z" fill="currentColor"/>
    </symbol>

    <symbol id="inst" width="100%" height="100%" viewBox="0 0 16 16">
      <path d="M12 16H4C2.93913 16 1.92172 15.5786 1.17157 14.8284C0.421427 14.0783 0 13.0609 0 12V4C0 2.93913 0.421427 1.92172 1.17157 1.17157C1.92172 0.421427 2.93913 0 4 0H12C13.0609 0 14.0783 0.421427 14.8284 1.17157C15.5786 1.92172 16 2.93913 16 4V12C16 13.0609 15.5786 14.0783 14.8284 14.8284C14.0783 15.5786 13.0609 16 12 16ZM4 1.6C3.36375 1.60088 2.75381 1.85402 2.30392 2.30392C1.85402 2.75381 1.60088 3.36375 1.6 4V12C1.60088 12.6362 1.85402 13.2462 2.30392 13.6961C2.75381 14.146 3.36375 14.3991 4 14.4H12C12.6362 14.3991 13.2462 14.146 13.6961 13.6961C14.146 13.2462 14.3991 12.6362 14.4 12V4C14.3991 3.36375 14.146 2.75381 13.6961 2.30392C13.2462 1.85402 12.6362 1.60088 12 1.6H4Z" fill="currentColor"/>
      <path d="M7.99989 12.5333C7.10328 12.5333 6.22681 12.2675 5.4813 11.7693C4.7358 11.2712 4.15475 10.5632 3.81163 9.73484C3.46852 8.90648 3.37874 7.99498 3.55366 7.1156C3.72858 6.23622 4.16034 5.42846 4.79434 4.79446C5.42834 4.16046 6.2361 3.7287 7.11548 3.55378C7.99486 3.37886 8.90636 3.46864 9.73472 3.81176C10.5631 4.15487 11.2711 4.73592 11.7692 5.48143C12.2673 6.22693 12.5332 7.1034 12.5332 8.00001C12.5323 9.20205 12.0544 10.3546 11.2045 11.2046C10.3545 12.0546 9.20193 12.5325 7.99989 12.5333ZM7.99989 5.06668C7.41973 5.06668 6.8526 5.23871 6.37022 5.56103C5.88783 5.88335 5.51186 6.34148 5.28984 6.87747C5.06782 7.41347 5.00973 8.00326 5.12292 8.57227C5.2361 9.14128 5.51547 9.66396 5.92571 10.0742C6.33594 10.4844 6.85861 10.7638 7.42762 10.877C7.99663 10.9902 8.58643 10.9321 9.12243 10.7101C9.65842 10.488 10.1165 10.1121 10.4389 9.62968C10.7612 9.1473 10.9332 8.58017 10.9332 8.00001C10.9323 7.22231 10.623 6.47672 10.0731 5.9268C9.52318 5.37689 8.77759 5.06756 7.99989 5.06668Z" fill="currentColor"/>
      <path d="M12.5332 4.53335C12.975 4.53335 13.3332 4.17518 13.3332 3.73335C13.3332 3.29152 12.975 2.93335 12.5332 2.93335C12.0913 2.93335 11.7332 3.29152 11.7332 3.73335C11.7332 4.17518 12.0913 4.53335 12.5332 4.53335Z" fill="currentColor"/>
    </symbol>

    <symbol id="vk" width="100%" height="100%" viewBox="0 0 20 12">
      <path d="M10.8376 11.6206C4.42851 11.6206 0.772924 7.27145 0.620605 0.0344238H3.83101C3.93646 5.34622 6.3032 7.59619 8.17789 8.0601V0.0344238H11.2009V4.61556C13.0522 4.41839 14.997 2.33079 15.6531 0.0344238H18.6761C18.1723 2.86429 16.0633 4.95189 14.5635 5.81013C16.0633 6.506 18.4653 8.32685 19.3792 11.6206H16.0515C15.3368 9.41705 13.556 7.71217 11.2009 7.48021V11.6206H10.8376Z" fill="currentColor"/>
    </symbol>

    <symbol id="tg" width="100%" height="100%" viewBox="0 0 15 14">
      <path fill-rule="evenodd" clip-rule="evenodd" d="M1.14337 6.38103C5.06237 4.60331 7.67132 3.42206 8.98138 2.84898C12.71 1.2233 13.4938 0.942604 13.9977 0.930908C14.1097 0.930908 14.356 0.954299 14.524 1.09465C14.6583 1.2116 14.6919 1.36364 14.7143 1.4806C14.7367 1.59755 14.7591 1.84316 14.7367 2.03029C14.5352 4.25244 13.6618 9.64408 13.2139 12.1235C13.0236 13.1761 12.6541 13.527 12.2957 13.5621C11.5119 13.6323 10.9185 13.0241 10.1683 12.5095C8.98138 11.7025 8.32075 11.1996 7.16744 10.4043C5.83498 9.49204 6.69716 8.98913 7.45857 8.17045C7.66012 7.95993 11.0976 4.68518 11.1648 4.39279C11.176 4.3577 11.176 4.21735 11.0976 4.14718C11.0193 4.07701 10.9073 4.1004 10.8177 4.12379C10.6946 4.14718 8.81343 5.45708 5.15195 8.04179C4.61449 8.42775 4.13301 8.61488 3.69632 8.60318C3.21484 8.59148 2.29667 8.32249 1.60245 8.08857C0.762662 7.80788 0.0908314 7.65584 0.146817 7.16463C0.180409 6.90733 0.516324 6.65003 1.14337 6.38103Z" fill="currentColor"/>
    </symbol>

    <symbol id="wa" width="100%" height="100%" viewBox="0 0 18 18">
      <path fill-rule="evenodd" clip-rule="evenodd" d="M14.9838 3.00909C13.3961 1.4272 11.2848 0.555654 9.03534 0.554688C4.40036 0.554688 0.627995 4.30877 0.626134 8.92304C0.625568 10.398 1.01271 11.8377 1.74863 13.1069L0.555664 17.4436L5.01347 16.2798C6.24171 16.9465 7.62457 17.298 9.03194 17.2985H9.03542C13.6699 17.2985 17.4426 13.5439 17.4446 8.92956C17.4454 6.69352 16.5714 4.59091 14.9838 3.00909ZM9.03542 15.8851H9.03259C7.77846 15.8846 6.54835 15.5493 5.47528 14.9155L5.22002 14.7648L2.57469 15.4554L3.28077 12.8886L3.11458 12.6253C2.41498 11.5179 2.0454 10.2378 2.04597 8.92344C2.0475 5.08828 5.18289 1.96813 9.03826 1.96813C10.905 1.96878 12.66 2.69322 13.9796 4.00811C15.2991 5.32292 16.0254 7.07052 16.0246 8.92916C16.0231 12.7646 12.8877 15.8851 9.03542 15.8851ZM12.8692 10.6754C12.6591 10.5708 11.6261 10.0649 11.4335 9.99508C11.2409 9.92543 11.1008 9.89049 10.9608 10.0998C10.8207 10.3092 10.418 10.7802 10.2954 10.9198C10.1728 11.0592 10.0502 11.0768 9.8402 10.972C9.63001 10.8674 8.95306 10.6466 8.15046 9.93413C7.52586 9.37967 7.10418 8.69493 6.98161 8.4855C6.85903 8.27614 6.9685 8.16301 7.07376 8.05874C7.16826 7.96501 7.28387 7.81444 7.38897 7.69237C7.49407 7.57031 7.52902 7.48302 7.59909 7.34348C7.66915 7.20394 7.63412 7.08179 7.58153 6.9772C7.52902 6.87244 7.10879 5.84315 6.93371 5.42445C6.76316 5.01678 6.58993 5.07193 6.46097 5.06549C6.33856 5.05945 6.19835 5.05808 6.05822 5.05808C5.91817 5.05808 5.69058 5.11042 5.49794 5.31977C5.30538 5.52913 4.76257 6.03503 4.76257 7.06432C4.76257 8.0936 5.51541 9.08786 5.62051 9.22749C5.72553 9.36703 7.10216 11.4791 9.20986 12.385C9.71108 12.6005 10.1025 12.7291 10.4077 12.8255C10.9111 12.9847 11.3691 12.9622 11.7311 12.9084C12.1348 12.8483 12.9742 12.4025 13.1493 11.914C13.3244 11.4255 13.3244 11.0068 13.2719 10.9196C13.2194 10.8325 13.0793 10.7802 12.8692 10.6754Z" fill="currentColor"/>
    </symbol>

    <symbol id="check" width="100%" height="100%" viewBox="0 0 24 26">
      <path d="M5 12.9231L10 18.3077L20 7.53845" fill="var(--color-none)" stroke="currentColor" stroke-width="2" stroke-linecap="round" stroke-linejoin="round"/>
    </symbol>

  </defs>
</svg>