<?xml version="1.0" standalone="no"?>
<!DOCTYPE svg PUBLIC "-//W3C//DTD SVG 20010904//EN"
 "http://www.w3.org/TR/2001/REC-SVG-20010904/DTD/svg10.dtd">
<svg version="1.0" xmlns="http://www.w3.org/2000/svg"
 width="260.000000pt" height="260.000000pt" viewBox="0 0 260.000000 260.000000"
 preserveAspectRatio="xMidYMid meet">
<metadata>
Created by potrace 1.14, written by Peter Selinger 2001-2017
</metadata>
<g transform="translate(0.000000,260.000000) scale(0.100000,-0.100000)"
fill="#000000" stroke="none">
<path d="M0 1300 l0 -1300 1300 0 1300 0 0 1300 0 1300 -1300 0 -1300 0 0
-1300z m512 173 c46 -41 3 -149 -77 -190 -24 -13 -213 -36 -223 -28 -2 2 7 37
19 79 l22 76 40 0 c33 0 38 -3 32 -17 -3 -10 -9 -30 -12 -45 -5 -27 -4 -28 31
-28 21 0 46 5 57 10 25 14 51 67 44 90 -7 22 -53 34 -96 25 -32 -7 -48 4 -49
33 0 20 188 17 212 -5z m288 11 c0 -3 -5 -14 -10 -25 -9 -16 -22 -19 -80 -19
-40 0 -70 -4 -70 -10 0 -5 25 -10 55 -10 37 0 55 -4 55 -12 -1 -29 -20 -40
-79 -45 -42 -4 -61 -10 -61 -19 0 -11 18 -14 74 -14 l74 0 -7 -27 -7 -28 -118
-3 c-103 -2 -118 -1 -113 13 4 8 18 54 33 102 14 49 28 91 31 96 5 8 223 10
223 1z m278 -11 c-2 -13 -16 -19 -52 -23 l-49 -5 -27 -80 c-26 -79 -27 -80
-63 -83 -20 -2 -37 0 -37 5 0 4 9 37 20 71 28 90 27 96 -15 88 -43 -8 -55 -2
-48 24 5 19 14 20 140 20 123 0 134 -2 131 -17z m192 -70 c6 -49 14 -96 16
-105 5 -15 -2 -18 -40 -18 -39 0 -46 3 -46 20 0 18 -7 20 -59 20 -48 0 -61 -4
-72 -21 -11 -16 -23 -20 -55 -17 l-41 3 80 103 81 102 62 0 62 0 12 -87z m170
80 c0 -4 -14 -51 -32 -105 l-32 -98 -39 0 c-44 0 -44 -13 1 128 l26 82 38 0
c21 0 38 -3 38 -7z m110 -1 c0 -4 -9 -36 -21 -71 -12 -34 -18 -65 -14 -69 3
-4 37 -9 75 -12 65 -5 67 -6 59 -27 -8 -22 -13 -23 -124 -23 -63 0 -115 1
-115 3 0 3 55 168 65 195 5 13 75 17 75 4z m225 -94 l-32 -103 -41 -3 -41 -3
35 105 36 106 38 0 38 0 -33 -102z m185 51 c13 -28 27 -52 31 -55 4 -2 15 21
24 51 16 55 16 55 56 55 37 0 40 -2 33 -22 -4 -13 -19 -61 -33 -108 l-27 -85
-45 -3 -45 -3 -30 68 -30 68 -20 -60 c-20 -58 -22 -60 -57 -63 -23 -2 -37 1
-37 8 0 6 14 54 31 106 l30 94 48 0 c47 0 48 0 71 -51z m415 27 c-15 -22 -23
-25 -82 -23 -60 2 -67 0 -89 -27 -18 -20 -24 -38 -22 -60 3 -30 5 -31 56 -34
47 -3 52 -1 52 17 0 12 -7 21 -16 21 -11 0 -14 6 -8 23 9 30 5 28 67 25 l55
-3 -22 -70 -22 -70 -89 -3 c-99 -2 -131 8 -153 48 -20 36 -1 101 44 145 l35
35 105 0 104 0 -15 -24z m-1165 -245 c0 -16 -26 -30 -47 -25 -11 3 -24 1 -27
-5 -5 -7 4 -11 23 -11 35 0 45 -12 37 -46 -6 -22 -11 -24 -61 -24 -30 0 -55 5
-55 10 0 6 15 10 34 10 45 0 56 18 14 22 -72 7 -36 78 39 78 23 0 43 -4 43 -9z
m125 -3 c2 -7 6 -33 10 -58 l6 -45 -75 -1 c-52 -1 -73 3 -69 10 40 66 77 106
99 106 14 0 26 -6 29 -12z m111 -5 c3 -10 8 -24 10 -31 3 -9 13 -3 30 17 26
31 64 42 64 19 0 -7 -6 -33 -14 -58 -10 -34 -19 -46 -36 -48 -18 -3 -21 0 -16
14 6 17 6 17 -12 1 -23 -21 -32 -21 -48 1 -13 16 -13 16 -14 0 0 -11 -8 -18
-20 -18 -24 0 -24 2 -5 68 12 40 20 52 36 52 11 0 22 -8 25 -17z"/>
<path d="M1153 1410 c-30 -37 -29 -40 7 -40 28 0 30 3 30 35 0 42 -8 43 -37 5z"/>
<path d="M1287 1176 c-4 -10 -5 -21 -2 -24 9 -9 17 6 13 25 -3 17 -4 17 -11
-1z"/>
</g>
</svg>
